<svg version="1.2" xmlns="http://www.w3.org/2000/svg" viewBox="0 0 750 250" width="1500" height="500"><style>.a{fill:#a4a9ad}.b{fill:#2d3740}.c{fill:#18bcf2}.d{fill:#333e48}.e{fill:#dadbdc}</style><path fill-rule="evenodd" class="a" d="m62.6 162.3v30.1h-9.5v-30.2z"/><path fill-rule="evenodd" class="b" d="m62.6 189.4v3.1h-9.5v-3.1z"/><path class="c" d="m49.3 143.9c0-4.8 3.9-8.6 8.6-8.6 4.7 0 8.6 3.8 8.6 8.6v18.4c0 4.7-3.9 8.6-8.6 8.6-4.7 0-8.6-3.9-8.6-8.6z"/><path fill-rule="evenodd" class="a" d="m105.5 162.3v30.1h-9.6v-30.2z"/><path fill-rule="evenodd" class="b" d="m105.5 189.4v3.1h-9.6v-3.1z"/><path class="c" d="m92.1 143.9c0-4.8 3.8-8.6 8.5-8.6 4.8 0 8.6 3.8 8.6 8.6v18.4c0 4.7-3.8 8.6-8.6 8.6-4.7 0-8.5-3.9-8.5-8.6z"/><path fill-rule="evenodd" class="c" d="m50.2 162.3v30.1h-9.5v-30.2z"/><path fill-rule="evenodd" class="d" d="m50.2 189.4v3.1h-9.5v-3.1z"/><path class="e" d="m36.9 143.9c0-4.8 3.8-8.6 8.6-8.6 4.7 0 8.6 3.8 8.6 8.6v18.4c0 4.7-3.9 8.6-8.6 8.6-4.8 0-8.6-3.9-8.6-8.6z"/><path fill-rule="evenodd" class="c" d="m93 162.3v30.1h-9.5v-30.2z"/><path fill-rule="evenodd" class="d" d="m93 189.4v3.1h-9.5v-3.1z"/><path class="e" d="m79.7 143.9c0-4.8 3.8-8.6 8.5-8.6 4.8 0 8.6 3.8 8.6 8.6v18.4c0 4.7-3.8 8.6-8.6 8.6-4.7 0-8.5-3.9-8.5-8.6z"/><path class="e" d="m119.2 63h-9.5c-7.1 0-12.9 5.8-12.9 12.9v28.5h-51.4c-3.2 0-6.3 0.8-9 2.2-1.2-1.7-3.2-2.7-5.5-2.7-3.8 0-6.9 3.1-6.9 6.9 0 2.5 1.3 4.7 3.3 5.9-0.9 2.3-1.4 4.6-1.4 7.1v9.8c0 10.7 8.8 19.5 19.5 19.5h55.2c10.7 0 19.5-8.8 19.5-19.5v-44.9c6.6-0.5 11.9-6 11.9-12.8 0-7.1-5.8-12.8-12.9-12.9z"/><path class="a" d="m135.3 76.1h-3v5.6h4.7v-4c0-0.9-0.8-1.6-1.7-1.6z"/><path class="c" d="m132 75.5c-0.1-2.6-0.9-5-2.3-7h-16.1c0 1.3-0.7 2.4-1.8 3q0.2 0.5 0.2 1.2c0 0.9-0.4 1.8-1 2.4 3.6 1.1 6.3 4.4 6.3 8.4 0 2.1-0.7 3.9-1.8 5.4h15c3.7 0 6.8-3 6.8-6.8 0-3.2-2.3-5.9-5.3-6.6z"/><path fill-rule="evenodd" class="d" d="m125.5 75.7c-0.8 0-1.5-0.7-1.5-1.5 0-0.8 0.7-1.5 1.5-1.5 0.9 0 1.6 0.7 1.6 1.5 0 0.8-0.7 1.5-1.6 1.5z"/><path class="c" d="m110.5 67.8c-1 1-2.7 1-3.7 0-1-1-1-2.7 0-3.7l6.7-6.6c2 2 2 5.2 0 7.3z"/><path class="c" d="m178.8 161h-13.7v-70h13.7zm30.8 0h-35.7v-12.5h35.7zm20.5 0h-13.2v-70h13.2zm53.9 0h-12.5l-0.5-10.1v-15.2q0-4.5-1-7.6-1-3.2-3.1-4.8-2-1.7-5.4-1.7-3 0-5.4 1.3-2.4 1.3-4.1 4.2l-12-4.1q1.4-3.2 4.1-6.2 2.7-3.1 7-5 4.4-2 10.7-2 7.5 0 12.5 2.7 5.1 2.7 7.6 8 2.5 5.2 2.4 12.8zm-26.3 1.2q-9 0-14-4-4.9-4-4.9-11.3 0-8 5.3-12 5.4-4.1 15.1-4.1h12.7v9.8h-8.1q-6.5 0-9 1.6-2.5 1.5-2.5 4.3 0 2.2 2 3.5 2 1.2 5.6 1.2 3.2 0 5.7-1.5 2.5-1.6 3.9-4 1.5-2.5 1.5-5.1h3.5q0 10.2-4 15.9-3.9 5.7-12.8 5.7zm50.3-1.2h-13.2v-50h12.4l0.8 9.2zm33.1 0h-13.2v-25.6l13.2-3zm33.2 0h-13.2v-25.6l13.2-3zm-33.2-28.6l-13.2 3q0-5.1-1.2-7.9-1.1-2.8-3.2-4-2.1-1.3-4.9-1.3-5.1-0.1-7.9 3.1-2.7 3.2-2.7 9.5h-4.4q0-8 2.3-13.5 2.4-5.6 6.6-8.5 4.2-3 9.9-3 9.1 0 13.9 5.6 4.9 5.5 4.8 17zm33.2 0l-13.2 3q0-5.1-1.2-7.9-1.2-2.8-3.3-4-2-1.3-4.9-1.3-5.1-0.1-7.9 3.1-2.7 3.2-2.7 9.5h-4.4q0-8 2.3-13.5 2.4-5.6 6.6-8.5 4.3-3 10-3 9.1 0 13.9 5.6 4.8 5.5 4.8 17zm53 28.6h-12.5l-0.5-10.1v-15.2q0-4.5-1-7.6-1-3.2-3.1-4.8-2-1.7-5.4-1.7-3 0-5.4 1.3-2.4 1.3-4.1 4.2l-12-4.1q1.4-3.2 4.1-6.2 2.7-3.1 7-5 4.4-2 10.7-2 7.5 0 12.5 2.7 5.1 2.7 7.6 8 2.5 5.2 2.4 12.8zm-26.3 1.2q-9 0-14-4-4.9-4-4.9-11.3 0-8 5.3-12 5.4-4.1 15.1-4.1h12.7v9.8h-8.1q-6.5 0-9 1.6-2.5 1.5-2.5 4.3 0 2.2 2 3.5 2 1.2 5.6 1.2 3.2 0 5.7-1.5 2.5-1.6 3.9-4 1.5-2.5 1.5-5.1h3.5q0 10.2-4 15.9-3.9 5.7-12.8 5.7zm125.8-1.2h-14.5l-26.8-70h13.7zm-55.3 0h-14.5l27.6-70h13.7zm42.4-15.4h-43.9v-12.1h43.9zm38.1 16.6q-4.8 0-9-1.4-4.2-1.5-7.4-4.2-3.2-2.8-5-6.8l11.3-5.2q1.5 2.4 4.1 4.2 2.6 1.7 6 1.7 3.3 0 5.1-0.9 1.8-1 1.8-2.8 0-1.8-1.5-2.6-1.4-0.9-3.9-1.5l-4.6-1.2q-7.2-1.9-11.4-6-4.1-4.2-4.1-9.6 0-7.7 4.9-11.9 5-4.2 14.1-4.2 4.7 0 8.7 1.4 4.1 1.4 7 3.9 2.9 2.5 4 5.8l-10.9 5q-0.7-2-3.4-3.2-2.7-1.3-5.4-1.3-2.7 0-4.2 1.2-1.4 1.1-1.4 3.1 0 1.3 1.4 2.2 1.4 0.8 4 1.4l6.5 1.6q4.9 1.2 7.8 3.9 3 2.6 4.3 5.9 1.4 3.2 1.4 6.3 0 4.5-2.7 8-2.6 3.4-7.2 5.3-4.5 1.9-10.3 1.9zm46.5 0q-4.8 0-9-1.4-4.2-1.5-7.4-4.2-3.2-2.8-5-6.8l11.3-5.2q1.5 2.4 4.1 4.2 2.6 1.7 6 1.7 3.3 0 5.1-0.9 1.8-1 1.8-2.8 0-1.8-1.5-2.6-1.4-0.9-3.9-1.5l-4.6-1.2q-7.2-1.9-11.4-6-4.1-4.2-4.1-9.6 0-7.7 4.9-11.9 5-4.2 14.1-4.2 4.7 0 8.7 1.4 4.1 1.4 7 3.9 2.9 2.5 4 5.8l-10.9 5q-0.7-2-3.4-3.2-2.7-1.3-5.4-1.3-2.7 0-4.2 1.2-1.4 1.1-1.4 3.1 0 1.3 1.4 2.2 1.4 0.8 4 1.4l6.5 1.6q4.9 1.2 7.8 3.9 3 2.6 4.3 5.9 1.4 3.2 1.4 6.3 0 4.5-2.7 8-2.6 3.4-7.2 5.3-4.5 1.9-10.3 1.9zm41.9-1.2h-13.2v-50h13.2zm-6.6-58.1q-3 0-5.3-2.2-2.3-2.3-2.3-5.4 0-3.1 2.3-5.3 2.3-2.3 5.3-2.3 3.1 0 5.3 2.3 2.3 2.2 2.3 5.3 0 3.1-2.3 5.4-2.2 2.2-5.3 2.2zm37.5 59.3q-4.8 0-9-1.4-4.2-1.5-7.4-4.2-3.2-2.8-5-6.8l11.3-5.2q1.5 2.4 4.1 4.2 2.6 1.7 6 1.7 3.3 0 5.1-0.9 1.8-1 1.8-2.8 0-1.8-1.5-2.6-1.4-0.9-3.9-1.5l-4.6-1.2q-7.2-1.9-11.4-6-4.1-4.2-4.1-9.6 0-7.7 4.9-11.9 5-4.2 14.1-4.2 4.7 0 8.7 1.4 4.1 1.4 7 3.9 2.9 2.5 4 5.8l-10.9 5q-0.7-2-3.4-3.2-2.7-1.3-5.4-1.3-2.7 0-4.2 1.2-1.4 1.1-1.4 3.1 0 1.3 1.4 2.2 1.4 0.8 4 1.4l6.5 1.6q4.9 1.2 7.8 3.9 3 2.6 4.3 5.9 1.4 3.2 1.4 6.3 0 4.5-2.7 8-2.6 3.4-7.2 5.3-4.5 1.9-10.3 1.9zm48.5 0q-8.3 0-12.6-4.1-4.2-4.1-4.2-11.7v-51h13.2v48.1q0 3.2 1.4 4.9 1.4 1.6 4.1 1.6 1 0 2.2-0.4 1.2-0.5 2.5-1.4l4.6 9.9q-2.4 1.8-5.4 3-2.9 1.1-5.8 1.1zm8.9-40h-33.8v-11.2h33.8z"/></svg>