<svg version="1.2" xmlns="http://www.w3.org/2000/svg" viewBox="0 0 227 270" width="227" height="270"><style>.a{fill:#a4a9ad}.b{fill:#2d3740}.c{fill:#18bcf2}.d{fill:#333e48}.e{fill:#dadbdc}</style><path fill-rule="evenodd" class="a" d="m77.3 209.5v60.4h-19.1v-60.4z"/><path fill-rule="evenodd" class="b" d="m77.3 263.8v6.1h-19.1v-6.1z"/><path class="c" d="m50.6 172.8c0-9.5 7.7-17.1 17.2-17.1 9.4 0 17.1 7.6 17.1 17.1v36.8c0 9.4-7.7 17.1-17.1 17.1-9.5 0-17.2-7.7-17.2-17.1z"/><path fill-rule="evenodd" class="a" d="m162.9 209.5v60.4h-19.1v-60.4z"/><path fill-rule="evenodd" class="b" d="m162.9 263.8v6.1h-19.1v-6.1z"/><path class="c" d="m136.2 172.8c0-9.5 7.7-17.1 17.1-17.1 9.5 0 17.2 7.6 17.2 17.1v36.8c0 9.4-7.7 17.1-17.2 17.1-9.4 0-17.1-7.7-17.1-17.1z"/><path fill-rule="evenodd" class="c" d="m52.4 209.5v60.4h-19.1v-60.4z"/><path fill-rule="evenodd" class="d" d="m52.4 263.8v6.1h-19.1v-6.1z"/><path class="e" d="m25.7 172.8c0-9.5 7.7-17.1 17.2-17.1 9.5 0 17.2 7.6 17.2 17.1v36.8c0 9.4-7.7 17.1-17.2 17.1-9.5 0-17.2-7.7-17.2-17.1z"/><path fill-rule="evenodd" class="c" d="m138 209.5v60.4h-19.1v-60.4z"/><path fill-rule="evenodd" class="d" d="m138 263.8v6.1h-19.1v-6.1z"/><path class="e" d="m111.3 172.8c0-9.5 7.7-17.1 17.2-17.1 9.5 0 17.1 7.6 17.1 17.1v36.8c0 9.4-7.6 17.1-17.1 17.1-9.5 0-17.2-7.7-17.2-17.1z"/><path class="e" d="m190.3 11.1h-18.9c-14.2 0-25.8 11.5-25.8 25.7v57h-102.7c-6.5 0-12.6 1.6-18 4.4-2.5-3.3-6.5-5.4-11-5.4-7.7 0-13.9 6.2-13.9 13.9 0 5 2.6 9.4 6.6 11.8-1.7 4.4-2.7 9.2-2.7 14.2v19.5c0 21.5 17.5 39 39 39h110.3c21.4 0 39-17.5 39-39v-89.7c13.3-1 23.8-12.1 23.8-25.7 0-14.2-11.5-25.7-25.7-25.7z"/><path class="a" d="m222.7 37.2h-6v11.2h9.3v-7.9c0-1.8-1.5-3.3-3.3-3.3z"/><path class="c" d="m216 35.9c-0.2-5.2-1.9-10-4.7-13.9h-32.2c0 2.5-1.4 4.8-3.5 6q0.4 1.1 0.4 2.3c0 1.9-0.8 3.7-2.1 4.9 7.3 2.1 12.7 8.8 12.7 16.8 0 4.1-1.4 7.8-3.7 10.8h30c7.5 0 13.6-6.1 13.6-13.6 0-6.5-4.5-11.9-10.5-13.3z"/><path fill-rule="evenodd" class="d" d="m203.1 36.4c-1.7 0-3-1.4-3-3.1 0-1.6 1.3-3 3-3 1.7 0 3.1 1.4 3.1 3 0 1.7-1.4 3.1-3.1 3.1z"/><path class="c" d="m173 20.6c-2 2-5.3 2-7.3 0-2-2-2-5.3 0-7.3l13.3-13.3c4.1 4 4.1 10.5 0 14.6z"/></svg>