<svg version="1.2" xmlns="http://www.w3.org/2000/svg" viewBox="0 0 1500 500" width="1500" height="500"><style>.a{fill:#a4a9ad}.b{fill:#2d3740}.c{fill:#18bcf2}.d{fill:#333e48}.e{fill:#dadbdc}.f{fill:#f2f4f9}</style><path fill-rule="evenodd" class="a" d="m125.3 324.5v60.4h-19.1v-60.4z"/><path fill-rule="evenodd" class="b" d="m125.3 378.8v6.1h-19.1v-6.1z"/><path class="c" d="m98.6 287.8c0-9.5 7.7-17.1 17.2-17.1 9.4 0 17.1 7.6 17.1 17.1v36.8c0 9.4-7.7 17.1-17.1 17.1-9.5 0-17.2-7.7-17.2-17.1z"/><path fill-rule="evenodd" class="a" d="m210.9 324.5v60.4h-19.1v-60.4z"/><path fill-rule="evenodd" class="b" d="m210.9 378.8v6.1h-19.1v-6.1z"/><path class="c" d="m184.2 287.8c0-9.5 7.7-17.1 17.1-17.1 9.5 0 17.2 7.6 17.2 17.1v36.8c0 9.4-7.7 17.1-17.2 17.1-9.4 0-17.1-7.7-17.1-17.1z"/><path fill-rule="evenodd" class="c" d="m100.4 324.5v60.4h-19.1v-60.4z"/><path fill-rule="evenodd" class="d" d="m100.4 378.8v6.1h-19.1v-6.1z"/><path class="e" d="m73.7 287.8c0-9.5 7.7-17.1 17.2-17.1 9.5 0 17.2 7.6 17.2 17.1v36.8c0 9.4-7.7 17.1-17.2 17.1-9.5 0-17.2-7.7-17.2-17.1z"/><path fill-rule="evenodd" class="c" d="m186 324.5v60.4h-19.1v-60.4z"/><path fill-rule="evenodd" class="d" d="m186 378.8v6.1h-19.1v-6.1z"/><path class="e" d="m159.3 287.8c0-9.5 7.7-17.1 17.2-17.1 9.5 0 17.1 7.6 17.1 17.1v36.8c0 9.4-7.6 17.1-17.1 17.1-9.5 0-17.2-7.7-17.2-17.1z"/><path class="e" d="m238.3 126.1h-18.9c-14.2 0-25.8 11.5-25.8 25.7q0 0 0 0v57h-102.7c-6.5 0-12.6 1.6-18 4.4-2.5-3.3-6.5-5.4-11-5.4-7.7 0-13.9 6.2-13.9 13.9 0 5 2.6 9.4 6.6 11.8-1.7 4.4-2.7 9.2-2.7 14.2v19.5c0 21.5 17.5 39 39 39h110.3c21.4 0 39-17.5 39-39v-89.7c13.3-1 23.8-12.1 23.8-25.7 0-14.2-11.5-25.7-25.7-25.7z"/><path class="a" d="m270.7 152.2h-6v11.2h9.3v-7.9c0-1.8-1.5-3.3-3.3-3.3z"/><path class="c" d="m264 150.9c-0.2-5.2-1.9-10-4.7-13.9h-32.2c0 2.5-1.4 4.8-3.5 6q0.4 1.1 0.4 2.3c0 1.9-0.8 3.7-2.1 4.9 7.3 2.1 12.7 8.8 12.7 16.8 0 4.1-1.4 7.8-3.7 10.8h30c7.5 0 13.6-6.1 13.6-13.6 0-6.5-4.5-11.9-10.5-13.3z"/><path fill-rule="evenodd" class="d" d="m251.1 151.4c-1.7 0-3-1.4-3-3.1 0-1.6 1.3-3 3-3 1.7 0 3.1 1.4 3.1 3 0 1.7-1.4 3.1-3.1 3.1z"/><path class="c" d="m221 135.6c-2 2-5.3 2-7.3 0-2-2-2-5.3 0-7.3l13.3-13.3c4.1 4 4.1 10.5 0 14.6z"/><path class="f" d="m171.1 280.5c0 1.8-1.5 3.2-3.3 3.2h-45.5c-1.8 0-3.3-1.4-3.3-3.2v-19.6c0-1.8 1-4.3 2.3-5.5l21.4-21.5c1.3-1.2 3.4-1.2 4.6 0l21.5 21.5c1.2 1.2 2.3 3.7 2.3 5.5v19.6z"/><path class="c" d="m168.8 255.4l-21.5-21.5c-1.2-1.2-3.3-1.2-4.6 0l-21.4 21.5c-1.3 1.2-2.3 3.7-2.3 5.5v19.6c0 1.8 1.5 3.2 3.3 3.2h20l-8.8-8.8q-0.7 0.2-1.5 0.2c-2.4 0-4.4-1.9-4.4-4.4 0-2.5 2-4.4 4.4-4.4 2.5 0 4.5 1.9 4.5 4.4q0 0.8-0.3 1.4l6.9 6.9v-25.1c-1.5-0.8-2.5-2.3-2.5-4 0-2.5 2-4.5 4.4-4.5 2.5 0 4.5 2 4.5 4.5 0 1.7-1 3.2-2.5 4v17.6l6.8-6.8q-0.2-0.7-0.2-1.4c0-2.4 2-4.4 4.5-4.4 2.4 0 4.4 2 4.4 4.4 0 2.5-2 4.5-4.4 4.5q-0.9 0-1.6-0.3l-9.5 9.5v6.7h20.8c1.8 0 3.3-1.4 3.3-3.2v-19.6c0-1.8-1.1-4.2-2.3-5.5z"/><path class="c" d="m360.6 298.4h58.4v24.6h-81.6-4.4v-146.6h27.6zm75.2 24.6v-149.4h26.2v149.4zm134.2 0h-25.2q-0.4-2.2-0.8-4.8-0.2-2.6-0.6-5.4-4 5.6-11.6 9.2-7.6 3.6-17.8 3.6-16.2 0-26.2-8.6-9.8-8.6-9.8-23.6 0-15 9.6-23 9.6-8.2 26.4-8.2h28.8v-3.4q0-9-5.4-13-5.2-4-14.2-4-16.4 0-23.6 14l-19-10.8q12.8-24.2 44.2-24.2 19 0 31.2 9.8 12.2 9.8 12.2 32v38q0 7.2 0.4 13.6 0.6 6.4 1.4 8.8zm-27-41v-2h-22.8q-7.6 0-11.8 3.6-4 3.4-4 9.4 0 6.2 4.2 9.6 4.4 3.4 12.4 3.4 4.4 0 8.4-1.2 4-1.4 7-4.2 3-3 4.8-7.4 1.8-4.6 1.8-11.2zm200.8-21.6v62.6h-25.2v-58.6q0-10.2-5-15.4-5-5.4-13.6-5.4-9 0-14.6 5.8-5.4 5.8-5.4 17.4v56.2h-25.6v-58.8q0-9.8-5-15.2-4.8-5.4-13.4-5.4-9 0-14.6 5.8-5.4 5.8-5.4 17.4v56.2h-26.2v-99.2h24.2l1 9q4.2-6 11.4-9 7.2-3 16.4-3 11.4 0 19.6 4.6 8.2 4.4 12.6 13.4 3.8-8.4 12-13.2 8.4-4.8 19.8-4.8 17 0 27 10.4 10 10.4 10 29.2zm109.4 62.6h-25.2q-0.4-2.2-0.8-4.8-0.2-2.6-0.6-5.4-4 5.6-11.6 9.2-7.6 3.6-17.8 3.6-16.2 0-26.2-8.6-9.8-8.6-9.8-23.6 0-15 9.6-23 9.6-8.2 26.4-8.2h28.8v-3.4q0-9-5.4-13-5.2-4-14.2-4-16.4 0-23.6 14l-19-10.8q12.8-24.2 44.2-24.2 19 0 31.2 9.8 12.2 9.8 12.2 32v38q0 7.2 0.4 13.6 0.6 6.4 1.4 8.8zm-27-41v-2h-22.8q-7.6 0-11.8 3.6-4 3.4-4 9.4 0 6.2 4.2 9.6 4.4 3.4 12.4 3.4 4.4 0 8.4-1.2 4-1.4 7-4.2 3-3 4.8-7.4 1.8-4.6 1.8-11.2zm195 41l-11.2-33.2h-53l-11.6 33.2h-28.4l52.8-146.6h26.8 0.8l52.8 146.6zm-56.2-56h37l-18.4-53.6zm134 37.8q6.4 0 10.2-2.4 4-2.6 4-7.6 0-7.2-9.6-9.6l-13.2-3.6q-15.6-4-22.2-11.4-6.6-7.4-6.6-17.8 0-13.8 10-22.6 10-9 27.6-9 15 0 25.4 6.8 10.4 6.8 12.6 19.4l-23.4 5.4q-0.6-5-4.4-7.8-3.8-2.8-9.4-2.8-5.8 0-9.4 2.8-3.4 2.6-3.4 7.4 0 3.6 2.6 6 2.6 2.4 8.6 4l13 3.4q28 7.4 28 29.4 0 14-10.6 22.4-10.6 8.4-29.4 8.4-18.2 0-28.6-7.6-10.2-7.8-12-20.6l24-4q0.4 5.2 4.6 8.4 4.4 3 11.6 3zm92.8 0q6.4 0 10.2-2.4 4-2.6 4-7.6 0-7.2-9.6-9.6l-13.2-3.6q-15.6-4-22.2-11.4-6.6-7.4-6.6-17.8 0-13.8 10-22.6 10-9 27.6-9 15 0 25.4 6.8 10.4 6.8 12.6 19.4l-23.4 5.4q-0.6-5-4.4-7.8-3.8-2.8-9.4-2.8-5.8 0-9.4 2.8-3.4 2.6-3.4 7.4 0 3.6 2.6 6 2.6 2.4 8.6 4l13 3.4q28 7.4 28 29.4 0 14-10.6 22.4-10.6 8.4-29.4 8.4-18.2 0-28.6-7.6-10.2-7.8-12-20.6l24-4q0.4 5.2 4.6 8.4 4.4 3 11.6 3zm56.6-114.8q0-6.6 4.6-11 4.6-4.6 11.2-4.6 6.6 0 11.2 4.6 4.6 4.4 4.6 11 0 6.8-4.6 11.4-4.6 4.4-11.2 4.4-6.6 0-11.2-4.4-4.6-4.6-4.6-11.4zm2.8 33.8h26.2v99.2h-26.2zm85.2 81q6.4 0 10.2-2.4 4-2.6 4-7.6 0-7.2-9.6-9.6l-13.2-3.6q-15.6-4-22.2-11.4-6.6-7.4-6.6-17.8 0-13.8 10-22.6 10-9 27.6-9 15 0 25.4 6.8 10.4 6.8 12.6 19.4l-23.4 5.4q-0.6-5-4.4-7.8-3.8-2.8-9.4-2.8-5.8 0-9.4 2.8-3.4 2.6-3.4 7.4 0 3.6 2.6 6 2.6 2.4 8.6 4l13 3.4q28 7.4 28 29.4 0 14-10.6 22.4-10.6 8.4-29.4 8.4-18.2 0-28.6-7.6-10.2-7.8-12-20.6l24-4q0.4 5.2 4.6 8.4 4.4 3 11.6 3zm113-81v21.6h-19v77.6h-25.6v-77.6h-19.2v-21.6h19.2v-30.8h25.6v30.8z"/></svg>